<mxfile host="app.diagrams.net" modified="2021-03-07T11:29:51.927Z" agent="5.0 (Windows NT 10.0; Win64; x64) AppleWebKit/537.36 (KHTML, like Gecko) Chrome/88.0.4324.190 Safari/537.36" etag="Ko_BfTh-AKA41xMDPmP6" version="14.4.3" type="github">
  <diagram id="XXqVzSlrGUsvlSfOQHMn" name="Page-1">
    <mxGraphModel dx="1117" dy="724" grid="1" gridSize="10" guides="1" tooltips="1" connect="1" arrows="1" fold="1" page="1" pageScale="1" pageWidth="827" pageHeight="1169" math="0" shadow="0">
      <root>
        <mxCell id="0" />
        <mxCell id="1" parent="0" />
        <mxCell id="EB5DrKI6RMKdzy3r6lBR-1" value="&lt;span&gt;Teleportkapu megsemmisül&lt;/span&gt;" style="shape=umlFrame;whiteSpace=wrap;html=1;width=110;height=30;" parent="1" vertex="1">
          <mxGeometry x="20" y="460" width="680" height="360" as="geometry" />
        </mxCell>
        <mxCell id="EB5DrKI6RMKdzy3r6lBR-2" value="Teleportkapu aszteroidája felrobban" style="shape=umlFrame;whiteSpace=wrap;html=1;width=120;height=50;" parent="1" vertex="1">
          <mxGeometry x="30" y="10" width="680" height="420" as="geometry" />
        </mxCell>
        <mxCell id="Y6GySP2yhpQgWw8pdZhG-103" value="opt" style="shape=umlFrame;whiteSpace=wrap;html=1;width=50;height=15;" parent="1" vertex="1">
          <mxGeometry x="80" y="625" width="555" height="90" as="geometry" />
        </mxCell>
        <mxCell id="Y6GySP2yhpQgWw8pdZhG-10" value="opt" style="shape=umlFrame;whiteSpace=wrap;html=1;width=50;height=15;" parent="1" vertex="1">
          <mxGeometry x="100" y="110" width="400" height="60" as="geometry" />
        </mxCell>
        <mxCell id="GGHujRy1CYx87Iy4emzG-1" value="tp: Teleportkapu" style="shape=umlLifeline;perimeter=lifelinePerimeter;whiteSpace=wrap;html=1;container=1;collapsible=0;recursiveResize=0;outlineConnect=0;" parent="1" vertex="1">
          <mxGeometry x="170" y="30" width="100" height="390" as="geometry" />
        </mxCell>
        <mxCell id="GGHujRy1CYx87Iy4emzG-3" value="" style="html=1;points=[];perimeter=orthogonalPerimeter;" parent="GGHujRy1CYx87Iy4emzG-1" vertex="1">
          <mxGeometry x="45" y="70" width="10" height="250" as="geometry" />
        </mxCell>
        <mxCell id="GGHujRy1CYx87Iy4emzG-5" value="" style="html=1;verticalAlign=bottom;endArrow=open;dashed=1;endSize=8;entryX=0.002;entryY=0.811;entryDx=0;entryDy=0;entryPerimeter=0;" parent="GGHujRy1CYx87Iy4emzG-1" edge="1" target="EB5DrKI6RMKdzy3r6lBR-2">
          <mxGeometry x="1" y="-52" relative="1" as="geometry">
            <mxPoint x="-100" y="320" as="targetPoint" />
            <mxPoint x="-15" y="2" as="offset" />
            <mxPoint x="45" y="320" as="sourcePoint" />
          </mxGeometry>
        </mxCell>
        <mxCell id="Y6GySP2yhpQgWw8pdZhG-26" value="" style="html=1;points=[];perimeter=orthogonalPerimeter;" parent="GGHujRy1CYx87Iy4emzG-1" vertex="1">
          <mxGeometry x="55" y="170" width="10" height="40" as="geometry" />
        </mxCell>
        <mxCell id="Y6GySP2yhpQgWw8pdZhG-27" value="Elront()" style="edgeStyle=orthogonalEdgeStyle;html=1;align=left;spacingLeft=2;endArrow=block;rounded=0;entryX=1;entryY=0;" parent="GGHujRy1CYx87Iy4emzG-1" target="Y6GySP2yhpQgWw8pdZhG-26" edge="1">
          <mxGeometry relative="1" as="geometry">
            <mxPoint x="50" y="150" as="sourcePoint" />
            <Array as="points">
              <mxPoint x="85" y="150" />
            </Array>
          </mxGeometry>
        </mxCell>
        <mxCell id="EB5DrKI6RMKdzy3r6lBR-3" value="" style="shape=umlDestroy;whiteSpace=wrap;html=1;strokeWidth=3;" parent="GGHujRy1CYx87Iy4emzG-1" vertex="1">
          <mxGeometry x="35" y="340" width="30" height="30" as="geometry" />
        </mxCell>
        <mxCell id="GGHujRy1CYx87Iy4emzG-2" value="par: Teleportkapu" style="shape=umlLifeline;perimeter=lifelinePerimeter;whiteSpace=wrap;html=1;container=1;collapsible=0;recursiveResize=0;outlineConnect=0;" parent="1" vertex="1">
          <mxGeometry x="560" y="20" width="100" height="420" as="geometry" />
        </mxCell>
        <mxCell id="GGHujRy1CYx87Iy4emzG-10" value="" style="html=1;points=[];perimeter=orthogonalPerimeter;" parent="GGHujRy1CYx87Iy4emzG-2" vertex="1">
          <mxGeometry x="45" y="281.5" width="10" height="29" as="geometry" />
        </mxCell>
        <mxCell id="Y6GySP2yhpQgWw8pdZhG-62" value="" style="html=1;points=[];perimeter=orthogonalPerimeter;" parent="GGHujRy1CYx87Iy4emzG-2" vertex="1">
          <mxGeometry x="45" y="240" width="10" height="29" as="geometry" />
        </mxCell>
        <mxCell id="Y6GySP2yhpQgWw8pdZhG-63" value="" style="html=1;verticalAlign=bottom;endArrow=open;dashed=1;endSize=8;exitX=0;exitY=0.95;entryX=0.5;entryY=0.832;entryDx=0;entryDy=0;entryPerimeter=0;" parent="GGHujRy1CYx87Iy4emzG-2" source="Y6GySP2yhpQgWw8pdZhG-62" edge="1">
          <mxGeometry x="0.0117" y="82" relative="1" as="geometry">
            <mxPoint x="-340" y="268" as="targetPoint" />
            <mxPoint as="offset" />
          </mxGeometry>
        </mxCell>
        <mxCell id="GGHujRy1CYx87Iy4emzG-9" value="sajatAszteroida: Aszteroida" style="shape=umlLifeline;perimeter=lifelinePerimeter;whiteSpace=wrap;html=1;container=1;collapsible=0;recursiveResize=0;outlineConnect=0;" parent="1" vertex="1">
          <mxGeometry x="400" y="20" width="100" height="300" as="geometry" />
        </mxCell>
        <mxCell id="GGHujRy1CYx87Iy4emzG-6" value="" style="html=1;points=[];perimeter=orthogonalPerimeter;" parent="GGHujRy1CYx87Iy4emzG-9" vertex="1">
          <mxGeometry x="50.5" y="110" width="10" height="30" as="geometry" />
        </mxCell>
        <mxCell id="GGHujRy1CYx87Iy4emzG-7" value="2. RemoveSzomszed(tp)" style="html=1;verticalAlign=bottom;endArrow=block;entryX=0;entryY=0;" parent="1" edge="1">
          <mxGeometry relative="1" as="geometry">
            <mxPoint x="225" y="130" as="sourcePoint" />
            <mxPoint x="450.5" y="130" as="targetPoint" />
          </mxGeometry>
        </mxCell>
        <mxCell id="GGHujRy1CYx87Iy4emzG-8" value="" style="html=1;verticalAlign=bottom;endArrow=open;dashed=1;endSize=8;exitX=0;exitY=0.95;" parent="1" source="GGHujRy1CYx87Iy4emzG-6" edge="1">
          <mxGeometry x="-0.164" y="64" relative="1" as="geometry">
            <mxPoint x="225" y="158.5" as="targetPoint" />
            <mxPoint as="offset" />
          </mxGeometry>
        </mxCell>
        <mxCell id="GGHujRy1CYx87Iy4emzG-11" value="3. RemoveSzomszed(tp)" style="html=1;verticalAlign=bottom;endArrow=block;entryX=0.2;entryY=0.052;entryDx=0;entryDy=0;entryPerimeter=0;" parent="1" target="GGHujRy1CYx87Iy4emzG-10" edge="1">
          <mxGeometry relative="1" as="geometry">
            <mxPoint x="220" y="303.5" as="sourcePoint" />
            <mxPoint x="610" y="230.5" as="targetPoint" />
          </mxGeometry>
        </mxCell>
        <mxCell id="GGHujRy1CYx87Iy4emzG-12" value="" style="html=1;verticalAlign=bottom;endArrow=open;dashed=1;endSize=8;exitX=0;exitY=0.95;entryX=0.5;entryY=0.832;entryDx=0;entryDy=0;entryPerimeter=0;" parent="1" source="GGHujRy1CYx87Iy4emzG-10" edge="1">
          <mxGeometry x="0.0117" y="82" relative="1" as="geometry">
            <mxPoint x="220" y="329.5" as="targetPoint" />
            <mxPoint as="offset" />
          </mxGeometry>
        </mxCell>
        <mxCell id="Y6GySP2yhpQgWw8pdZhG-11" value="[sajatAszteroida&lt;br&gt;&amp;nbsp;not null]" style="text;html=1;align=center;verticalAlign=middle;resizable=0;points=[];autosize=1;" parent="1" vertex="1">
          <mxGeometry x="105" y="140" width="100" height="30" as="geometry" />
        </mxCell>
        <mxCell id="Y6GySP2yhpQgWw8pdZhG-58" value="opt" style="shape=umlFrame;whiteSpace=wrap;html=1;width=50;height=15;" parent="1" vertex="1">
          <mxGeometry x="100" y="245" width="555" height="90" as="geometry" />
        </mxCell>
        <mxCell id="Y6GySP2yhpQgWw8pdZhG-59" value="[par not null]" style="text;html=1;align=center;verticalAlign=middle;resizable=0;points=[];autosize=1;" parent="1" vertex="1">
          <mxGeometry x="125" y="280" width="80" height="20" as="geometry" />
        </mxCell>
        <mxCell id="Y6GySP2yhpQgWw8pdZhG-61" value="3. SetPar(null)" style="html=1;verticalAlign=bottom;endArrow=block;entryX=0.2;entryY=0.052;entryDx=0;entryDy=0;entryPerimeter=0;" parent="1" edge="1">
          <mxGeometry x="0.137" y="3" relative="1" as="geometry">
            <mxPoint x="220" y="264.49" as="sourcePoint" />
            <mxPoint x="607" y="263.99800000000005" as="targetPoint" />
            <mxPoint as="offset" />
          </mxGeometry>
        </mxCell>
        <mxCell id="Y6GySP2yhpQgWw8pdZhG-85" value="tp: TeleportKapu" style="shape=umlLifeline;perimeter=lifelinePerimeter;whiteSpace=wrap;html=1;container=1;collapsible=0;recursiveResize=0;outlineConnect=0;" parent="1" vertex="1">
          <mxGeometry x="150" y="480" width="100" height="310" as="geometry" />
        </mxCell>
        <mxCell id="Y6GySP2yhpQgWw8pdZhG-86" value="" style="html=1;points=[];perimeter=orthogonalPerimeter;" parent="Y6GySP2yhpQgWw8pdZhG-85" vertex="1">
          <mxGeometry x="45" y="70" width="10" height="200" as="geometry" />
        </mxCell>
        <mxCell id="Y6GySP2yhpQgWw8pdZhG-88" value="" style="html=1;verticalAlign=bottom;endArrow=open;dashed=1;endSize=8;" parent="Y6GySP2yhpQgWw8pdZhG-85" edge="1">
          <mxGeometry x="1" y="-52" relative="1" as="geometry">
            <mxPoint x="-127" y="271" as="targetPoint" />
            <mxPoint x="-15" y="2" as="offset" />
            <mxPoint x="45" y="270" as="sourcePoint" />
          </mxGeometry>
        </mxCell>
        <mxCell id="Y6GySP2yhpQgWw8pdZhG-89" value="" style="html=1;points=[];perimeter=orthogonalPerimeter;" parent="Y6GySP2yhpQgWw8pdZhG-85" vertex="1">
          <mxGeometry x="55" y="100" width="10" height="40" as="geometry" />
        </mxCell>
        <mxCell id="Y6GySP2yhpQgWw8pdZhG-90" value="Elront()" style="edgeStyle=orthogonalEdgeStyle;html=1;align=left;spacingLeft=2;endArrow=block;rounded=0;entryX=1;entryY=0;" parent="Y6GySP2yhpQgWw8pdZhG-85" target="Y6GySP2yhpQgWw8pdZhG-89" edge="1">
          <mxGeometry relative="1" as="geometry">
            <mxPoint x="50" y="80" as="sourcePoint" />
            <Array as="points">
              <mxPoint x="85" y="80" />
            </Array>
          </mxGeometry>
        </mxCell>
        <mxCell id="EB5DrKI6RMKdzy3r6lBR-4" value="" style="shape=umlDestroy;whiteSpace=wrap;html=1;strokeWidth=3;" parent="Y6GySP2yhpQgWw8pdZhG-85" vertex="1">
          <mxGeometry x="35" y="290" width="30" height="30" as="geometry" />
        </mxCell>
        <mxCell id="Y6GySP2yhpQgWw8pdZhG-91" value="par: TeleportKapu" style="shape=umlLifeline;perimeter=lifelinePerimeter;whiteSpace=wrap;html=1;container=1;collapsible=0;recursiveResize=0;outlineConnect=0;" parent="1" vertex="1">
          <mxGeometry x="540" y="480" width="100" height="350" as="geometry" />
        </mxCell>
        <mxCell id="Y6GySP2yhpQgWw8pdZhG-92" value="" style="html=1;points=[];perimeter=orthogonalPerimeter;" parent="Y6GySP2yhpQgWw8pdZhG-91" vertex="1">
          <mxGeometry x="45" y="200" width="10" height="29" as="geometry" />
        </mxCell>
        <mxCell id="Y6GySP2yhpQgWw8pdZhG-93" value="" style="html=1;points=[];perimeter=orthogonalPerimeter;" parent="Y6GySP2yhpQgWw8pdZhG-91" vertex="1">
          <mxGeometry x="45" y="160" width="10" height="29" as="geometry" />
        </mxCell>
        <mxCell id="Y6GySP2yhpQgWw8pdZhG-99" value="3. RemoveSzomszed(tp)" style="html=1;verticalAlign=bottom;endArrow=block;entryX=0.2;entryY=0.052;entryDx=0;entryDy=0;entryPerimeter=0;" parent="1" target="Y6GySP2yhpQgWw8pdZhG-92" edge="1">
          <mxGeometry relative="1" as="geometry">
            <mxPoint x="200" y="683.5" as="sourcePoint" />
            <mxPoint x="590" y="610.5" as="targetPoint" />
          </mxGeometry>
        </mxCell>
        <mxCell id="Y6GySP2yhpQgWw8pdZhG-100" value="" style="html=1;verticalAlign=bottom;endArrow=open;dashed=1;endSize=8;exitX=0;exitY=0.95;entryX=0.5;entryY=0.832;entryDx=0;entryDy=0;entryPerimeter=0;" parent="1" source="Y6GySP2yhpQgWw8pdZhG-92" edge="1">
          <mxGeometry x="0.0117" y="82" relative="1" as="geometry">
            <mxPoint x="200" y="709.5" as="targetPoint" />
            <mxPoint as="offset" />
          </mxGeometry>
        </mxCell>
        <mxCell id="Y6GySP2yhpQgWw8pdZhG-104" value="[par not null]" style="text;html=1;align=center;verticalAlign=middle;resizable=0;points=[];autosize=1;" parent="1" vertex="1">
          <mxGeometry x="105" y="660" width="80" height="20" as="geometry" />
        </mxCell>
        <mxCell id="Y6GySP2yhpQgWw8pdZhG-105" value="3. SetPar(null)" style="html=1;verticalAlign=bottom;endArrow=block;entryX=0.2;entryY=0.052;entryDx=0;entryDy=0;entryPerimeter=0;" parent="1" edge="1">
          <mxGeometry x="0.137" y="3" relative="1" as="geometry">
            <mxPoint x="200" y="644.49" as="sourcePoint" />
            <mxPoint x="587" y="643.998" as="targetPoint" />
            <mxPoint as="offset" />
          </mxGeometry>
        </mxCell>
        <mxCell id="Y6GySP2yhpQgWw8pdZhG-94" value="" style="html=1;verticalAlign=bottom;endArrow=open;dashed=1;endSize=8;exitX=0;exitY=0.95;" parent="1" source="Y6GySP2yhpQgWw8pdZhG-93" target="Y6GySP2yhpQgWw8pdZhG-86" edge="1">
          <mxGeometry x="0.0117" y="82" relative="1" as="geometry">
            <mxPoint x="200" y="748" as="targetPoint" />
            <mxPoint as="offset" />
          </mxGeometry>
        </mxCell>
        <mxCell id="GGHujRy1CYx87Iy4emzG-4" value="1. RemoveSzomszed(a)" style="html=1;verticalAlign=bottom;endArrow=block;entryX=0;entryY=0;exitX=0;exitY=0.217;exitDx=0;exitDy=0;exitPerimeter=0;" parent="1" target="GGHujRy1CYx87Iy4emzG-3" edge="1" source="EB5DrKI6RMKdzy3r6lBR-2">
          <mxGeometry x="-0.1111" relative="1" as="geometry">
            <mxPoint x="80" y="100" as="sourcePoint" />
            <mxPoint as="offset" />
          </mxGeometry>
        </mxCell>
        <mxCell id="Y6GySP2yhpQgWw8pdZhG-87" value="1. Megsemmisul()" style="html=1;verticalAlign=bottom;endArrow=block;entryX=0;entryY=0;" parent="1" target="Y6GySP2yhpQgWw8pdZhG-86" edge="1">
          <mxGeometry x="-0.1111" relative="1" as="geometry">
            <mxPoint x="20" y="550" as="sourcePoint" />
            <mxPoint as="offset" />
          </mxGeometry>
        </mxCell>
      </root>
    </mxGraphModel>
  </diagram>
</mxfile>
